<?xml version="1.0" encoding="UTF-8"?>
<svg id="Calque_2" xmlns="http://www.w3.org/2000/svg" viewBox="0 0 954.72 264.33">
  <defs>
    <style>
      .cls-1 {
        fill: #13100d;
      }
    </style>
  </defs>
  <g id="Calque_1-2" data-name="Calque_1">
    <g>
      <polygon class="cls-1" points="614.71 264.33 596.09 264.33 596.09 245.71 614.71 245.71 614.71 264.33 614.71 264.33"/>
      <polygon class="cls-1" points="577.46 264.33 558.84 264.33 558.84 245.71 577.46 245.71 577.46 264.33 577.46 264.33"/>
      <polygon class="cls-1" points="540.21 264.33 521.58 264.33 521.58 245.71 540.21 245.71 540.21 264.33 540.21 264.33"/>
      <polygon class="cls-1" points="502.95 264.33 484.33 264.33 484.33 245.71 502.95 245.71 502.95 264.33 502.95 264.33"/>
      <polygon class="cls-1" points="465.7 264.33 447.07 264.33 447.07 245.71 465.7 245.71 465.7 264.33 465.7 264.33"/>
      <polygon class="cls-1" points="428.44 264.33 409.81 264.33 409.81 245.71 428.44 245.71 428.44 264.33 428.44 264.33"/>
      <polygon class="cls-1" points="391.19 264.33 372.56 264.33 372.56 245.71 391.19 245.71 391.19 264.33 391.19 264.33"/>
      <polygon class="cls-1" points="353.92 264.33 335.3 264.33 335.3 245.71 353.92 245.71 353.92 264.33 353.92 264.33"/>
      <polygon class="cls-1" points="316.67 264.33 298.04 264.33 298.04 245.71 316.67 245.71 316.67 264.33 316.67 264.33"/>
      <polygon class="cls-1" points="279.42 264.33 260.8 264.33 260.8 245.71 279.42 245.71 279.42 264.33 279.42 264.33"/>
      <polygon class="cls-1" points="242.17 264.33 223.53 264.33 223.53 245.71 242.17 245.71 242.17 264.33 242.17 264.33"/>
      <polygon class="cls-1" points="204.91 264.33 186.28 264.33 186.28 245.71 204.91 245.71 204.91 264.33 204.91 264.33"/>
      <polygon class="cls-1" points="167.65 264.33 149.02 264.33 149.02 245.71 167.65 245.71 167.65 264.33 167.65 264.33"/>
      <polygon class="cls-1" points="130.4 264.33 111.76 264.33 111.76 245.71 130.4 245.71 130.4 264.33 130.4 264.33"/>
      <polygon class="cls-1" points="93.14 264.33 74.51 264.33 74.51 245.71 93.14 245.71 93.14 264.33 93.14 264.33"/>
      <polygon class="cls-1" points="55.88 264.33 37.26 264.33 37.26 245.71 55.88 245.71 55.88 264.33 55.88 264.33"/>
      <polygon class="cls-1" points="18.63 264.33 0 264.33 0 245.71 18.63 245.71 18.63 264.33 18.63 264.33"/>
      <polygon class="cls-1" points="954.71 264.33 936.08 264.33 936.08 245.71 954.71 245.71 954.71 264.33 954.71 264.33"/>
      <polygon class="cls-1" points="916.53 264.33 897.92 264.33 897.92 245.71 916.53 245.71 916.53 264.33 916.53 264.33"/>
      <polygon class="cls-1" points="878.59 264.33 859.96 264.33 859.96 245.71 878.59 245.71 878.59 264.33 878.59 264.33"/>
      <polygon class="cls-1" points="841.34 264.33 822.71 264.33 822.71 245.71 841.34 245.71 841.34 264.33 841.34 264.33"/>
      <polygon class="cls-1" points="804.08 264.33 785.45 264.33 785.45 245.71 804.08 245.71 804.08 264.33 804.08 264.33"/>
      <polygon class="cls-1" points="765.46 264.33 746.82 264.33 746.82 245.71 765.46 245.71 765.46 264.33 765.46 264.33"/>
      <polygon class="cls-1" points="728.19 264.33 709.57 264.33 709.57 245.71 728.19 245.71 728.19 264.33 728.19 264.33"/>
      <polygon class="cls-1" points="690.94 264.33 672.31 264.33 672.31 245.71 690.94 245.71 690.94 264.33 690.94 264.33"/>
      <polygon class="cls-1" points="653.68 264.33 635.05 264.33 635.05 245.71 653.68 245.71 653.68 264.33 653.68 264.33"/>
      <g>
        <path class="cls-1" d="M32.88,111.33l-11.33,19.06v64.92H0V1.93h21.55v93.38L72.94,1.93h21.83l-48.9,88.13,50.56,105.26h-22.1l-41.44-83.99Z"/>
        <path class="cls-1" d="M212.17,87.58v19.34h-47.24v68.79h58.02v19.61h-79.57V1.93h79.57v19.61h-58.02v66.03h47.24Z"/>
        <path class="cls-1" d="M667.12,87.58v19.34h-47.24v68.79h58.01v19.61h-79.56V1.93h79.56v19.61h-58.01v66.03h47.24Z"/>
        <path class="cls-1" d="M810.24,48.35v5.25h-20.44v-6.36c0-17.4-6.62-27.62-22.1-27.62s-22.1,10.22-22.1,27.35c0,43.37,64.92,47.52,64.92,101.94,0,29.29-14.09,48.35-43.65,48.35s-43.38-19.06-43.38-48.35v-11.05h20.16v12.15c0,17.41,7.19,27.62,22.66,27.62s22.65-10.22,22.65-27.62c0-43.1-64.65-47.24-64.65-101.67,0-29.84,13.81-48.35,42.83-48.35s43.09,19.06,43.09,48.35Z"/>
        <path class="cls-1" d="M891.18,111.33l-11.32,19.06v64.92h-21.55V1.93h21.55v93.38L931.24,1.93h21.82l-48.9,88.13,50.56,105.26h-22.1l-41.44-83.99Z"/>
      </g>
      <g>
        <g>
          <polygon class="cls-1" points="299.46 26.66 268.93 26.66 268.93 7.48 299.46 7.48 299.46 26.66 299.46 26.66"/>
          <polygon class="cls-1" points="347.34 78.97 318.38 78.97 318.38 59.8 347.34 59.8 347.34 78.97 347.34 78.97"/>
          <polygon class="cls-1" points="366.46 26.66 366.46 7.48 397.53 7.48 397.53 26.66 366.46 26.66 366.46 26.66"/>
        </g>
        <rect class="cls-1" x="281.43" y="1.93" width="5.54" height="193.39"/>
        <rect class="cls-1" x="330.09" y="1.93" width="5.54" height="193.39"/>
        <rect class="cls-1" x="379.23" y="1.93" width="5.54" height="193.39"/>
      </g>
      <path class="cls-1" d="M511.02,195.05h-20.72l-32.05-153.89v154.16h-18.79V1.93h30.11l31.77,154.43L532.02,1.93h30.11v193.39h-20.44V39.78l-30.66,155.27Z"/>
    </g>
  </g>
</svg>